# xmcd CD database file
# Copyright (C) 1997 Ti Kan
#
# Track frame offsets:
#  150
#  9223
#  19500
#  35023
#  48373
#  58348
#  67200
#  84000
#  95923
#  106798
#  121123
#  134998
#  142650
#  152885
#  159825
#  174300
#  184760
#  199173
#  210598
#  221548
#  230938
#  247423
#  258748
#  269698
#  288148
#
# Disc length: 3949 seconds
#
# Revision: 1
# Processed by: cddbd v1.4b41PL1 Copyright (c) Steve Scherf et al.
# Submitted via: CDWizzard Release:4.31
#
DISCID=730f6b19
DTITLE=Riders In The Sky - Best Of The West Rides Again
DYEAR=1900
DGENRE=
TTITLE0=Three On the Trail
TTITLE1=Back In The Saddle Again
TTITLE2=Cool Water
TTITLE3=Desperado Trail
TTITLE4=At The End Of THe Rainbow Trail
TTITLE5=Down The Trail To San Antone
TTITLE6=Blue Shadows On The Trail
TTITLE7=Jingle Jangle Jingle
TTITLE8=Pecos Bill
TTITLE9=Streets Of Laredo (The Cowboy's Lament)
TTITLE10=West Texas Cowboy
TTITLE11=Cowpoke
TTITLE12=Old El Paso
TTITLE13=Skyball Paint
TTITLE14=Compadres In The Old Sierra Madre
TTITLE15=Bound To Hit The Trail
TTITLE16=Ojo Caliente
TTITLE17=The Yodel Blues
TTITLE18=Pretty Prairie Princess
TTITLE19=Chasin' The Sun
TTITLE20=When The Bloom Is On The Sage
TTITLE21=Singing A Song To THe Sky
TTITLE22=On The Rhythm Range
TTITLE23=Red River Valley
TTITLE24=When Payday Rolls Around
EXTD=
EXTT0=Riders In The Sky
EXTT1=Riders In The Sky
EXTT2=Riders In The Sky
EXTT3=Riders In The Sky
EXTT4=Riders In The Sky
EXTT5=Riders In The Sky
EXTT6=Riders In The Sky
EXTT7=Riders In The Sky
EXTT8=Riders In The Sky
EXTT9=Riders In The Sky
EXTT10=Riders In The Sky
EXTT11=Riders In The Sky
EXTT12=Riders In The Sky
EXTT13=Riders In The Sky
EXTT14=Riders In The Sky
EXTT15=Riders In The Sky
EXTT16=Riders In The Sky
EXTT17=Riders In The Sky
EXTT18=Riders In The Sky
EXTT19=Riders In The Sky
EXTT20=Riders In The Sky
EXTT21=Riders In The Sky
EXTT22=Riders In The Sky
EXTT23=Riders In The Sky
EXTT24=Riders In The Sky
PLAYORDER=
